<?xml version="1.0" encoding="UTF-8" standalone="no"?>
<svg version="1.1" xmlns="http://www.w3.org/2000/svg" xmlns:xlink="http://www.w3.org/1999/xlink">
 

    <symbol id="card" viewBox="0 0 22 30 " >
        <path d= "M21,2H16V1a1,1,0,0,0-1-1H7A1,1,0,0,0,6,1V2H1A1,1,0,0,0,0,3V29a1,1,0,0,0,1,1H21a1,1,0,0,0,1-1V3A1,1,0,0,0,21,2ZM8,2h6V4H8ZM20,28H2V4H6V5A1,1,0,0,0,7,6h8a1,1,0,0,0,1-1V4h4ZM17,11a1,1,0,0,1-1,1H6a1,1,0,0,1,0-2H16A1,1,0,0,1,17,11Zm0,6a1,1,0,0,1-1,1H6a1,1,0,0,1,0-2H16A1,1,0,0,1,17,17Zm0,6a1,1,0,0,1-1,1H6a1,1,0,0,1,0-2H16A1,1,0,0,1,17,23Z"/>
    </symbol>

    <symbol id="graph" viewBox="0 0 35 30" >
      <path d="M30,29a1,1,0,0,1-1,1H1a1,1,0,0,1-1-1V1A1,1,0,1,1,2,1V28H4V22a1,1,0,0,1,2,0v6h5V11a1,1,0,0,1,2,0V28h5V17a1,1,0,0,1,2,0V28h5V5a1,1,0,0,1,2,0V28h2A1,1,0,0,1,30,29Z"/>
    </symbol>

    <symbol id="referral" viewBox="0 0 30 30" >
        <path d="M15.058,19.492a5.311,5.311,0,0,1-3.781-1.559.975.975,0,0,1,1.393-1.364h0a3.4,3.4,0,0,0,4.8,0L26.314,7.74a3.425,3.425,0,1,0-4.872-4.814L17.085,7.341A.978.978,0,0,1,15.7,5.957l4.4-4.395a5.35,5.35,0,0,1,7.562,7.562L18.83,17.953a5.311,5.311,0,0,1-3.771,1.54ZM9.124,27.668l4.395-4.4a.974.974,0,1,0-1.355-1.393h0L7.74,26.314a3.425,3.425,0,0,1-4.814-4.872l8.838-8.77a3.4,3.4,0,0,1,4.8,0A.975.975,0,1,0,17.953,11.3a5.35,5.35,0,0,0-7.562,0L1.562,20.106a5.35,5.35,0,0,0,7.562,7.562Z"/>
    </symbol>

    <symbol id="clock" viewBox="0 0 12 12" >
          <path d="M9.558,6.462H6A.462.462,0,0,1,5.538,6V2.442a.462.462,0,1,1,.923,0v3.1h3.1a.462.462,0,0,1,0,.923ZM12,6a6,6,0,1,0-6,6,6,6,0,0,0,6-6Zm-.923,0A5.077,5.077,0,1,1,6,.923,5.077,5.077,0,0,1,11.077,6Z"/>
    </symbol>

     <symbol id="user" viewBox="0 0 12 12" >
    <path  d="M46.35,42.05A3.5,3.5,0,0,0,47.6,39.3a3.6,3.6,0,0,0-7.2,0,3.661,3.661,0,0,0,1.25,2.75A4.761,4.761,0,0,0,38,46.65v.8A2.561,2.561,0,0,0,40.55,50h6.8a2.561,2.561,0,0,0,2.55-2.55v-.8A4.632,4.632,0,0,0,46.35,42.05ZM41.4,39.3A2.6,2.6,0,1,1,44,41.9,2.582,2.582,0,0,1,41.4,39.3Zm7.55,8.15A1.558,1.558,0,0,1,47.4,49H40.6a1.558,1.558,0,0,1-1.55-1.55v-.8A3.777,3.777,0,0,1,42.8,42.9h2.45A3.777,3.777,0,0,1,49,46.65v.8Z" transform="translate(-38 -35.7)" fill="#c6d1d7"/>

    </symbol>

    <symbol id="password" viewBox="0  0 20 20" >
        <path  d="M18.308,12.123C18.155,11.938,14.4,8,9.66,8s-8.5,3.938-8.648,4.123L.66,12.5l.352.377C1.165,13.063,4.919,17,9.66,17s8.5-3.937,8.648-4.112l.352-.377ZM9.66,15.616a3.157,3.157,0,0,1-3.221-3.088A3.157,3.157,0,0,1,9.66,9.44a3.157,3.157,0,0,1,3.221,3.088A3.157,3.157,0,0,1,9.66,15.616Z"/>
        <circle cx="2.379" cy="2.379" r="2.379" transform="translate(7.281 10.148)" />
    </symbol>

    <symbol id="select" viewBox="0  0 10 6" >
        <path  d="M394-345l-5-5,.7-.7,4.3,4.3,4.3-4.3.7.7Z" transform="translate(-389 350.7)" fill="#161616" fill-rule="evenodd"/>
    </symbol>

    <symbol id="check" viewBox="0  0 512 512" >
        <path d="m450.585 68.552-252.065 252.065-137.105-137.104-61.415 61.415 198.52 198.52 313.48-313.48z" fill="#ffffff"/>
    </symbol>

    <symbol id="date_ico" viewBox="0  0 16 16" >
        <path d="M15.039,3H13.032V2h-1V3H8.014V2h-1V3H5a1.006,1.006,0,0,0-1,1V14.042a1.006,1.006,0,0,0,1,1H15.039a1.006,1.006,0,0,0,1-1V4.007A1.006,1.006,0,0,0,15.039,3Zm0,11.039H5V7.018H15.039Zm0-8.028H5V4.007H7.011v1h1v-1h4.014v1h1v-1h2.007Z"/>
    </symbol>

</svg>


</svg>




