<?xml version="1.0" encoding="UTF-8" standalone="no"?>
<svg version="1.1" xmlns="http://www.w3.org/2000/svg" xmlns:xlink="http://www.w3.org/1999/xlink">
 

    <symbol id="card" viewBox="0 0 22 30 " >
        <path d= "M21,2H16V1a1,1,0,0,0-1-1H7A1,1,0,0,0,6,1V2H1A1,1,0,0,0,0,3V29a1,1,0,0,0,1,1H21a1,1,0,0,0,1-1V3A1,1,0,0,0,21,2ZM8,2h6V4H8ZM20,28H2V4H6V5A1,1,0,0,0,7,6h8a1,1,0,0,0,1-1V4h4ZM17,11a1,1,0,0,1-1,1H6a1,1,0,0,1,0-2H16A1,1,0,0,1,17,11Zm0,6a1,1,0,0,1-1,1H6a1,1,0,0,1,0-2H16A1,1,0,0,1,17,17Zm0,6a1,1,0,0,1-1,1H6a1,1,0,0,1,0-2H16A1,1,0,0,1,17,23Z"/>
    </symbol>

    <symbol id="graph" viewBox="0 0 35 30" >
      <path d="M30,29a1,1,0,0,1-1,1H1a1,1,0,0,1-1-1V1A1,1,0,1,1,2,1V28H4V22a1,1,0,0,1,2,0v6h5V11a1,1,0,0,1,2,0V28h5V17a1,1,0,0,1,2,0V28h5V5a1,1,0,0,1,2,0V28h2A1,1,0,0,1,30,29Z"/>
    </symbol>

    <symbol id="referral" viewBox="0 0 30 30" >
        <path d="M15.058,19.492a5.311,5.311,0,0,1-3.781-1.559.975.975,0,0,1,1.393-1.364h0a3.4,3.4,0,0,0,4.8,0L26.314,7.74a3.425,3.425,0,1,0-4.872-4.814L17.085,7.341A.978.978,0,0,1,15.7,5.957l4.4-4.395a5.35,5.35,0,0,1,7.562,7.562L18.83,17.953a5.311,5.311,0,0,1-3.771,1.54ZM9.124,27.668l4.395-4.4a.974.974,0,1,0-1.355-1.393h0L7.74,26.314a3.425,3.425,0,0,1-4.814-4.872l8.838-8.77a3.4,3.4,0,0,1,4.8,0A.975.975,0,1,0,17.953,11.3a5.35,5.35,0,0,0-7.562,0L1.562,20.106a5.35,5.35,0,0,0,7.562,7.562Z"/>
    </symbol>

    <symbol id="clock" viewBox="0 0 12 12" >
          <path d="M9.558,6.462H6A.462.462,0,0,1,5.538,6V2.442a.462.462,0,1,1,.923,0v3.1h3.1a.462.462,0,0,1,0,.923ZM12,6a6,6,0,1,0-6,6,6,6,0,0,0,6-6Zm-.923,0A5.077,5.077,0,1,1,6,.923,5.077,5.077,0,0,1,11.077,6Z"/>
    </symbol>

     <symbol id="user" viewBox="0 0 12 12" >
    <path  d="M46.35,42.05A3.5,3.5,0,0,0,47.6,39.3a3.6,3.6,0,0,0-7.2,0,3.661,3.661,0,0,0,1.25,2.75A4.761,4.761,0,0,0,38,46.65v.8A2.561,2.561,0,0,0,40.55,50h6.8a2.561,2.561,0,0,0,2.55-2.55v-.8A4.632,4.632,0,0,0,46.35,42.05ZM41.4,39.3A2.6,2.6,0,1,1,44,41.9,2.582,2.582,0,0,1,41.4,39.3Zm7.55,8.15A1.558,1.558,0,0,1,47.4,49H40.6a1.558,1.558,0,0,1-1.55-1.55v-.8A3.777,3.777,0,0,1,42.8,42.9h2.45A3.777,3.777,0,0,1,49,46.65v.8Z" transform="translate(-38 -35.7)" fill="#c6d1d7"/>

    </symbol>

    <symbol id="password" viewBox="0  0 20 20" >
        <path  d="M18.308,12.123C18.155,11.938,14.4,8,9.66,8s-8.5,3.938-8.648,4.123L.66,12.5l.352.377C1.165,13.063,4.919,17,9.66,17s8.5-3.937,8.648-4.112l.352-.377ZM9.66,15.616a3.157,3.157,0,0,1-3.221-3.088A3.157,3.157,0,0,1,9.66,9.44a3.157,3.157,0,0,1,3.221,3.088A3.157,3.157,0,0,1,9.66,15.616Z"/>
        <circle cx="2.379" cy="2.379" r="2.379" transform="translate(7.281 10.148)" />
    </symbol>

    <symbol id="select" viewBox="0  0 10 6" >
        <path  d="M394-345l-5-5,.7-.7,4.3,4.3,4.3-4.3.7.7Z" transform="translate(-389 350.7)" fill="#161616" fill-rule="evenodd"/>
    </symbol>

    <symbol id="check" viewBox="0  0 512 512" >
        <path d="m450.585 68.552-252.065 252.065-137.105-137.104-61.415 61.415 198.52 198.52 313.48-313.48z" fill="#ffffff"/>
    </symbol>

    <symbol id="date_ico" viewBox="0  0 16 16" >
        <path d="M15.039,3H13.032V2h-1V3H8.014V2h-1V3H5a1.006,1.006,0,0,0-1,1V14.042a1.006,1.006,0,0,0,1,1H15.039a1.006,1.006,0,0,0,1-1V4.007A1.006,1.006,0,0,0,15.039,3Zm0,11.039H5V7.018H15.039Zm0-8.028H5V4.007H7.011v1h1v-1h4.014v1h1v-1h2.007Z"/>
    </symbol>

        <path  d="M18.8,39.116h.185l6.164-1.541a.728.728,0,0,0,.308-.185l15.41-15.409a.74.74,0,0,0,.046-1.125l-4.623-4.623a.74.74,0,0,0-1.079,0L19.8,31.642a.69.69,0,0,0-.185.324L18.073,38.13a.707.707,0,0,0,.2.724A.725.725,0,0,0,18.8,39.116ZM35.748,17.867,39.277,21.4l-1.988,1.988L33.76,19.855Zm-3.082,3.082L36.2,24.477,24.961,35.71l-3.529-3.529ZM20.754,33.692l2.7,2.7-3.591.893Z"/>




    <symbol id="menu1" viewBox="0 0 23 23">
        <g id="noun_edit_2017574" transform="translate(-18.043 -16)">
    <path id="Контур_12739" data-name="Контур 12739" d="M18.8,39.116h.185l6.164-1.541a.728.728,0,0,0,.308-.185l15.41-15.409a.74.74,0,0,0,.046-1.125l-4.623-4.623a.74.74,0,0,0-1.079,0L19.8,31.642a.69.69,0,0,0-.185.324L18.073,38.13a.707.707,0,0,0,.2.724A.725.725,0,0,0,18.8,39.116ZM35.748,17.867,39.277,21.4l-1.988,1.988L33.76,19.855Zm-3.082,3.082L36.2,24.477,24.961,35.71l-3.529-3.529ZM20.754,33.692l2.7,2.7-3.591.893Z"/>
  </g>
        </symbol>


    <symbol id="menu2" viewBox="0 0 26 26">
        <path  d="M11.373,3.488a11.281,11.281,0,0,0-5.314,8.858,11.37,11.37,0,0,0,1.4,6.585v.013a2.278,2.278,0,0,1,.266,1.316v.021c-.074.59-.162,1.18-.245,1.749q-.061.417-.12.832l-.048.351-.074.532c1.162-.16,2.27-.311,3.387-.46a2.236,2.236,0,0,1,.3-.019,2.467,2.467,0,0,1,1.148.29,11.764,11.764,0,0,0,5.564,1.433,12.141,12.141,0,0,0,2.592-.287,11.7,11.7,0,0,0,7.709-5.755A11.717,11.717,0,0,0,17.735,1.6V0h0V1.6a11.745,11.745,0,0,0-6.362,1.893ZM23.11,11.764a1.523,1.523,0,1,1-1.086.444,1.529,1.529,0,0,1,1.086-.444Zm-10.8,3.055a1.529,1.529,0,1,1,1.518-1.507A1.529,1.529,0,0,1,12.315,14.818ZM19.226,13.3a1.08,1.08,0,1,1,.005-.005Z" transform="translate(-4.409)" fill="none"/>
        <path  d="M1.744,20.079c-.109.856-.242,1.72-.362,2.563-.136.97-.266,1.935-.407,2.954l.266-.019c1.731-.242,3.456-.481,5.2-.712h.088a.864.864,0,0,1,.393.1,13.292,13.292,0,0,0,6.3,1.622,13.675,13.675,0,0,0,2.924-.324A13.292,13.292,0,0,0,13.326,0V1.6A11.62,11.62,0,0,1,24.3,9.382a11.511,11.511,0,0,1-.763,9.57,11.7,11.7,0,0,1-7.709,5.755,12.141,12.141,0,0,1-2.6.282,11.764,11.764,0,0,1-5.553-1.436,2.467,2.467,0,0,0-1.148-.29,2.237,2.237,0,0,0-.3.019c-1.114.149-2.225.3-3.387.46l.074-.532.048-.348q.058-.417.12-.832c.082-.572.167-1.162.245-1.749V20.26a2.278,2.278,0,0,0-.266-1.316v-.013A11.37,11.37,0,0,1,1.65,12.346,11.277,11.277,0,0,1,6.967,3.488,11.745,11.745,0,0,1,13.326,1.6V0h0A13.292,13.292,0,0,0,6.1,2.148,12.829,12.829,0,0,0,.061,12.2a12.912,12.912,0,0,0,1.6,7.494A.718.718,0,0,1,1.744,20.079Z" transform="translate(0)"/>
        <path  d="M44.25,45.779a1.529,1.529,0,1,0,1.529-1.529A1.545,1.545,0,0,0,44.25,45.779Z" transform="translate(-32.482 -32.486)" />
        <path  d="M25.49,44.25a1.523,1.523,0,1,0,1.075.46A1.529,1.529,0,0,0,25.49,44.25Z" transform="translate(-17.571 -32.486)" />
        <path  d="M66.081,47.307a1.529,1.529,0,1,0-1.521-1.529,1.529,1.529,0,0,0,1.521,1.529Z" transform="translate(-47.392 -32.486)" />
    </symbol>

<symbol id="menu3" viewBox="0 0 23 23">
  <g id="noun_Exit_1558251" transform="translate(36.861 988.064) rotate(180)">
    <path id="Контур_12745" data-name="Контур 12745" d="M56,966.282a.958.958,0,0,1,.931-.92h6.74a.955.955,0,0,1,.918.92v20.861a.955.955,0,0,1-.918.92h-6.74a.92.92,0,1,1,0-1.841h5.822V967.2H56.931A.943.943,0,0,1,56,966.282Z" transform="translate(-27.729)"  />
    <path id="Контур_12746" data-name="Контур 12746" d="M16,988.5a1.032,1.032,0,0,1,.249-.633l4.908-5.215a1.054,1.054,0,0,1,1.342-.077.959.959,0,0,1-.01,1.342l-3.451,3.662H31.646a.92.92,0,0,1,0,1.841H19.039l3.451,3.662a1.014,1.014,0,0,1,.01,1.342,1.041,1.041,0,0,1-1.342-.077l-4.908-5.215A.885.885,0,0,1,16,988.5Z" transform="translate(0 -11.785)"/>
  </g>
  </symbol>

</svg>







