<svg xmlns="http://www.w3.org/2000/svg" viewBox="0 0 109 33"><defs><style>.cls-1{fill:#fff;}.cls-2{fill:none;stroke:#1ba2fc;stroke-width:2px;}.cls-3{isolation:isolate;}.cls-4{fill:#1ba2fc;}</style></defs><title>Ресурс 1</title><g id="Слой_2" data-name="Слой 2"><g id="Слой_1-2" data-name="Слой 1"><g id="Сгруппировать_287" data-name="Сгруппировать 287"><g id="Прямоугольник_16" data-name="Прямоугольник 16"><rect class="cls-1" x="2" y="2" width="105" height="29" rx="6"/><rect class="cls-2" x="1" y="1" width="107" height="31" rx="7"/></g><g id="SFG_Stat" data-name="SFG Stat" class="cls-3"><g class="cls-3"><path class="cls-4" d="M21.76,21A1.89,1.89,0,0,0,21,19.38a8.79,8.79,0,0,0-2.62-1.13,12.74,12.74,0,0,1-3-1.26,4,4,0,0,1-2.14-3.51,3.8,3.8,0,0,1,1.54-3.11,6.22,6.22,0,0,1,4-1.23,6.62,6.62,0,0,1,2.91.61,4.81,4.81,0,0,1,2,1.71,4.36,4.36,0,0,1,.73,2.46H21.76A2.44,2.44,0,0,0,21,12a3.16,3.16,0,0,0-2.2-.7,3.31,3.31,0,0,0-2.07.57A1.89,1.89,0,0,0,16,13.47a1.72,1.72,0,0,0,.79,1.44A9.44,9.44,0,0,0,19.41,16a11.88,11.88,0,0,1,2.93,1.23A4.69,4.69,0,0,1,24,18.85a4.19,4.19,0,0,1,.51,2.1A3.73,3.73,0,0,1,23,24.06a6.49,6.49,0,0,1-4.06,1.15,7.63,7.63,0,0,1-3.12-.62,5.28,5.28,0,0,1-2.22-1.74,4.38,4.38,0,0,1-.79-2.58h2.72a2.57,2.57,0,0,0,.88,2.07,3.91,3.91,0,0,0,2.53.73,3.32,3.32,0,0,0,2.13-.58A1.84,1.84,0,0,0,21.76,21Z"/><path class="cls-4" d="M35.88,18.37h-6.3V25H26.87V9.36H36.8v2.19H29.58V16.2h6.3Z"/><path class="cls-4" d="M50.94,23a5.22,5.22,0,0,1-2.35,1.68,9.62,9.62,0,0,1-3.42.56,6.68,6.68,0,0,1-3.48-.89,5.91,5.91,0,0,1-2.34-2.55,9,9,0,0,1-.85-3.87V16.67a8.27,8.27,0,0,1,1.7-5.53,5.89,5.89,0,0,1,4.74-2,6.22,6.22,0,0,1,4.14,1.3,5.55,5.55,0,0,1,1.85,3.72H48.27A3,3,0,0,0,45,11.34a3.21,3.21,0,0,0-2.78,1.31,6.72,6.72,0,0,0-1,3.86v1.2a6.36,6.36,0,0,0,1.07,3.93,3.5,3.5,0,0,0,3,1.4,3.89,3.89,0,0,0,3-.94V19H45V17h5.93Z"/></g><g class="cls-3"><path class="cls-4" d="M64.24,18a9.68,9.68,0,0,1-3.86-1.88,3.55,3.55,0,0,1-1.21-2.74,3.79,3.79,0,0,1,1.48-3.06,5.88,5.88,0,0,1,3.84-1.21,6.34,6.34,0,0,1,2.87.63,4.68,4.68,0,0,1,2,1.72,4.33,4.33,0,0,1,.7,2.39H67.93a2.88,2.88,0,0,0-.9-2.24,3.67,3.67,0,0,0-2.54-.81,3.81,3.81,0,0,0-2.38.67,2.25,2.25,0,0,0-.86,1.87A2,2,0,0,0,62.06,15a8.14,8.14,0,0,0,2.76,1.21,13.2,13.2,0,0,1,3.06,1.21A4.76,4.76,0,0,1,69.51,19,4,4,0,0,1,70,21a3.64,3.64,0,0,1-1.48,3,6.35,6.35,0,0,1-4,1.14,7.35,7.35,0,0,1-3-.61,5.09,5.09,0,0,1-2.16-1.69,4.18,4.18,0,0,1-.76-2.44h2.08a2.72,2.72,0,0,0,1,2.24,4.48,4.48,0,0,0,2.8.82,4,4,0,0,0,2.51-.67A2.16,2.16,0,0,0,68,21.05a2.12,2.12,0,0,0-.81-1.78A9.33,9.33,0,0,0,64.24,18Z"/><path class="cls-4" d="M75.07,10.56v2.82h2.17v1.53H75.07v7.22a1.57,1.57,0,0,0,.29,1.05,1.22,1.22,0,0,0,1,.35,4.56,4.56,0,0,0,.94-.13V25a5.85,5.85,0,0,1-1.52.21,2.46,2.46,0,0,1-2-.8,3.48,3.48,0,0,1-.68-2.29V14.91H71V13.38h2.12V10.56Z"/><path class="cls-4" d="M86.73,25a4.68,4.68,0,0,1-.28-1.22,4.4,4.4,0,0,1-3.3,1.43,4.08,4.08,0,0,1-2.82-1,3.13,3.13,0,0,1-1.11-2.46A3.27,3.27,0,0,1,80.61,19a6.49,6.49,0,0,1,3.88-1h1.93V17a2.26,2.26,0,0,0-.62-1.66A2.53,2.53,0,0,0,84,14.76a2.88,2.88,0,0,0-1.78.54,1.58,1.58,0,0,0-.72,1.3h-2a2.75,2.75,0,0,1,.62-1.68,4.29,4.29,0,0,1,1.67-1.29,5.74,5.74,0,0,1,2.33-.47,4.6,4.6,0,0,1,3.15,1,3.62,3.62,0,0,1,1.18,2.76v5.35a6.41,6.41,0,0,0,.41,2.55V25Zm-3.29-1.51A3.53,3.53,0,0,0,85.21,23a2.91,2.91,0,0,0,1.21-1.25V19.36H84.86c-2.43,0-3.65.71-3.65,2.14A1.82,1.82,0,0,0,81.83,23,2.42,2.42,0,0,0,83.44,23.49Z"/><path class="cls-4" d="M94.22,10.56v2.82h2.17v1.53H94.22v7.22a1.62,1.62,0,0,0,.29,1.05,1.22,1.22,0,0,0,1,.35,4.48,4.48,0,0,0,.94-.13V25a5.85,5.85,0,0,1-1.52.21,2.46,2.46,0,0,1-2-.8,3.48,3.48,0,0,1-.68-2.29V14.91H90.12V13.38h2.11V10.56Z"/></g></g></g></g></g></svg>